<svg width="18" height="4" viewBox="0 0 18 4" fill="none" xmlns="http://www.w3.org/2000/svg">
<path fill-rule="evenodd" clip-rule="evenodd" d="M2 1.75C1.86193 1.75 1.75 1.86193 1.75 2C1.75 2.13807 1.86193 2.25 2 2.25C2.13807 2.25 2.25 2.13807 2.25 2C2.25 1.86193 2.13808 1.75 2 1.75ZM0.25 2C0.25 1.0335 1.0335 0.25 2 0.25C2.9665 0.25 3.75 1.0335 3.75 2C3.75 2.96649 2.9665 3.75 2 3.75C1.0335 3.75 0.25 2.96649 0.25 2Z" fill="#FFCA42"/>
<path fill-rule="evenodd" clip-rule="evenodd" d="M9 1.75C8.86193 1.75 8.75 1.86193 8.75 2C8.75 2.13807 8.86193 2.25 9 2.25C9.13807 2.25 9.25 2.13807 9.25 2C9.25 1.86193 9.13808 1.75 9 1.75ZM7.25 2C7.25 1.0335 8.0335 0.25 9 0.25C9.9665 0.25 10.75 1.0335 10.75 2C10.75 2.96649 9.9665 3.75 9 3.75C8.0335 3.75 7.25 2.96649 7.25 2Z" fill="#FFCA42"/>
<path fill-rule="evenodd" clip-rule="evenodd" d="M16 1.75C15.8619 1.75 15.75 1.86193 15.75 2C15.75 2.13807 15.8619 2.25 16 2.25C16.1381 2.25 16.25 2.13807 16.25 2C16.25 1.86193 16.1381 1.75 16 1.75ZM14.25 2C14.25 1.0335 15.0335 0.25 16 0.25C16.9665 0.25 17.75 1.0335 17.75 2C17.75 2.96649 16.9665 3.75 16 3.75C15.0335 3.75 14.25 2.96649 14.25 2Z" fill="#FFCA42"/>
</svg>
