<svg width="117" height="32" viewBox="0 0 117 32" fill="none" xmlns="http://www.w3.org/2000/svg">
<path d="M35.0199 25.0004V4.63672H43.054C44.5985 4.63672 45.9143 4.9317 47.0014 5.52167C48.0885 6.105 48.9171 6.91703 49.4872 7.95776C50.0639 8.99186 50.3523 10.1851 50.3523 11.5373C50.3523 12.8896 50.0606 14.0828 49.4773 15.1169C48.8939 16.151 48.0488 16.9564 46.9418 17.5331C45.8414 18.1098 44.509 18.3981 42.9446 18.3981H37.8239V14.9478H42.2486C43.0772 14.9478 43.7599 14.8053 44.2969 14.5203C44.8404 14.2286 45.2448 13.8276 45.5099 13.3172C45.7817 12.8001 45.9176 12.2068 45.9176 11.5373C45.9176 10.8612 45.7817 10.2712 45.5099 9.76736C45.2448 9.25696 44.8404 8.86256 44.2969 8.58416C43.7533 8.29916 43.0639 8.15656 42.2287 8.15656H39.3253V25.0004H35.0199ZM57.0142 25.2888C56.0398 25.2888 55.1714 25.1197 54.4091 24.7816C53.6468 24.437 53.0436 23.9299 52.5994 23.2603C52.1619 22.5842 51.9432 21.7424 51.9432 20.7348C51.9432 19.8863 52.099 19.1737 52.4105 18.597C52.7221 18.0203 53.1463 17.5563 53.6832 17.2049C54.2202 16.8536 54.83 16.5885 55.5128 16.4095C56.2022 16.2305 56.9247 16.1046 57.6804 16.0316C58.5687 15.9388 59.2846 15.8527 59.8281 15.7731C60.3717 15.687 60.7661 15.561 61.0114 15.3953C61.2566 15.2296 61.3793 14.9843 61.3793 14.6595V14.5998C61.3793 13.9701 61.1804 13.4829 60.7827 13.1382C60.3916 12.7935 59.8348 12.6211 59.1122 12.6211C58.3499 12.6211 57.7434 12.7902 57.2926 13.1282C56.8419 13.4597 56.5436 13.8773 56.3977 14.3811L52.4801 14.0629C52.679 13.1349 53.0701 12.3328 53.6534 11.6566C54.2367 10.9739 54.9891 10.4502 55.9105 10.0856C56.8385 9.71436 57.9124 9.52876 59.1321 9.52876C59.9806 9.52876 60.7926 9.62816 61.5682 9.82706C62.3504 10.026 63.0431 10.3342 63.6463 10.7518C64.2562 11.1694 64.7367 11.7064 65.0881 12.3626C65.4394 13.0122 65.6151 13.7911 65.6151 14.6993V25.0004H61.598V22.8825H61.4787C61.2334 23.3598 60.9053 23.7807 60.4943 24.1453C60.0833 24.5032 59.5895 24.785 59.0128 24.9905C58.4361 25.1893 57.7699 25.2888 57.0142 25.2888ZM58.2273 22.3655C58.8504 22.3655 59.4006 22.2428 59.8778 21.9976C60.3551 21.7457 60.7296 21.4076 61.0014 20.9834C61.2732 20.5591 61.4091 20.0785 61.4091 19.5416V17.9209C61.2765 18.007 61.0942 18.0866 60.8622 18.1595C60.6368 18.2258 60.3816 18.2888 60.0966 18.3484C59.8116 18.4014 59.5265 18.4512 59.2415 18.4976C58.9564 18.5373 58.6979 18.5738 58.4659 18.6069C57.9688 18.6799 57.5346 18.7959 57.1634 18.9549C56.7921 19.114 56.5038 19.3295 56.2983 19.6013C56.0928 19.8664 55.9901 20.1978 55.9901 20.5956C55.9901 21.1723 56.1989 21.6131 56.6165 21.918C57.0407 22.2163 57.5777 22.3655 58.2273 22.3655ZM75.782 31.0459C74.4098 31.0459 73.2332 30.8569 72.2521 30.4791C71.2777 30.1079 70.5021 29.6008 69.9254 28.9578C69.3487 28.3148 68.9742 27.5923 68.8018 26.7902L72.7195 26.2632C72.8388 26.5681 73.0277 26.8531 73.2862 27.1183C73.5447 27.3834 73.8861 27.5956 74.3104 27.7547C74.7412 27.9204 75.2649 28.0032 75.8814 28.0032C76.8028 28.0032 77.5618 27.7779 78.1584 27.3271C78.7616 26.883 79.0632 26.1372 79.0632 25.0899V22.2959H78.8842C78.6986 22.7201 78.4202 23.1211 78.049 23.499C77.6778 23.8768 77.2005 24.1851 76.6172 24.4237C76.0339 24.6623 75.3378 24.7816 74.5291 24.7816C73.3823 24.7816 72.3383 24.5165 71.397 23.9862C70.4624 23.4493 69.7166 22.6306 69.1598 21.5302C68.6096 20.4232 68.3345 19.0245 68.3345 17.3342C68.3345 15.6041 68.6162 14.159 69.1797 12.999C69.7431 11.8389 70.4922 10.9706 71.4268 10.3939C72.3681 9.81716 73.3989 9.52876 74.5192 9.52876C75.3743 9.52876 76.0902 9.67456 76.6669 9.96626C77.2436 10.2513 77.7076 10.6093 78.0589 11.0402C78.4169 11.4644 78.692 11.882 78.8842 12.293H79.0433V9.72766H83.2493V25.1495C83.2493 26.4488 82.9311 27.5359 82.2947 28.4109C81.6584 29.2859 80.7768 29.9422 79.6499 30.3797C78.5296 30.8238 77.2403 31.0459 75.782 31.0459ZM75.8714 21.5998C76.5542 21.5998 77.1309 21.4308 77.6016 21.0927C78.0788 20.748 78.4434 20.2575 78.6953 19.6211C78.9538 18.9781 79.0831 18.2092 79.0831 17.3143C79.0831 16.4194 78.9571 15.6439 78.7053 14.9876C78.4534 14.3247 78.0888 13.811 77.6115 13.4464C77.1342 13.0818 76.5542 12.8995 75.8714 12.8995C75.1754 12.8995 74.5888 13.0885 74.1115 13.4663C73.6342 13.8375 73.273 14.3546 73.0277 15.0174C72.7824 15.6803 72.6598 16.4459 72.6598 17.3143C72.6598 18.1959 72.7824 18.9583 73.0277 19.6013C73.2796 20.2376 73.6409 20.7315 74.1115 21.0828C74.5888 21.4275 75.1754 21.5998 75.8714 21.5998ZM93.5803 25.2987C92.0092 25.2987 90.657 24.9805 89.5234 24.3442C88.3965 23.7012 87.5282 22.793 86.9183 21.6197C86.3085 20.4398 86.0036 19.0444 86.0036 17.4336C86.0036 15.8626 86.3085 14.4838 86.9183 13.2973C87.5282 12.1107 88.3866 11.186 89.4936 10.5231C90.6072 9.86016 91.9131 9.52876 93.4112 9.52876C94.4188 9.52876 95.3568 9.69116 96.2251 10.016C97.1001 10.3342 97.8625 10.8148 98.5121 11.4578C99.1683 12.1008 99.6787 12.9095 100.043 13.8839C100.408 14.8517 100.59 15.9852 100.59 17.2845V18.4478H87.6939V15.8228H96.603C96.603 15.213 96.4704 14.6727 96.2053 14.2021C95.9401 13.7315 95.5722 13.3636 95.1016 13.0984C94.6375 12.8266 94.0973 12.6907 93.4808 12.6907C92.8378 12.6907 92.2678 12.8399 91.7706 13.1382C91.2801 13.4299 90.8956 13.8243 90.6172 14.3214C90.3388 14.812 90.1963 15.3588 90.1896 15.962V18.4578C90.1896 19.2135 90.3288 19.8664 90.6072 20.4166C90.8923 20.9668 91.2933 21.391 91.8104 21.6893C92.3274 21.9876 92.9406 22.1368 93.6499 22.1368C94.1205 22.1368 94.5514 22.0705 94.9425 21.9379C95.3336 21.8053 95.6683 21.6065 95.9467 21.3413C96.2251 21.0762 96.4373 20.7513 96.5831 20.3669L100.501 20.6254C100.302 21.5667 99.8942 22.3887 99.2777 23.0913C98.6679 23.7873 97.879 24.3309 96.9112 24.722C95.95 25.1065 94.8397 25.2987 93.5803 25.2987ZM116.062 14.0828L112.184 14.3214C112.118 13.99 111.975 13.6917 111.756 13.4265C111.538 13.1548 111.249 12.9393 110.891 12.7802C110.54 12.6145 110.119 12.5316 109.629 12.5316C108.972 12.5316 108.419 12.6709 107.968 12.9493C107.517 13.221 107.292 13.5856 107.292 14.043C107.292 14.4076 107.438 14.7158 107.729 14.9677C108.021 15.2196 108.522 15.4218 109.231 15.5743L111.995 16.1311C113.48 16.436 114.587 16.9265 115.316 17.6027C116.045 18.2788 116.41 19.1671 116.41 20.2674C116.41 21.2684 116.115 22.1467 115.525 22.9024C114.942 23.6581 114.139 24.248 113.119 24.6723C112.104 25.0899 110.934 25.2987 109.609 25.2987C107.587 25.2987 105.976 24.8778 104.776 24.0359C103.583 23.1874 102.884 22.034 102.678 20.5757L106.844 20.3569C106.97 20.9734 107.275 21.4441 107.759 21.7689C108.243 22.087 108.863 22.2461 109.619 22.2461C110.361 22.2461 110.958 22.1036 111.408 21.8186C111.866 21.5269 112.098 21.1524 112.104 20.695C112.098 20.3105 111.935 19.9957 111.617 19.7504C111.299 19.4985 110.808 19.3063 110.146 19.1737L107.501 18.6467C106.009 18.3484 104.899 17.8314 104.17 17.0956C103.447 16.3598 103.086 15.4218 103.086 14.2816C103.086 13.3006 103.351 12.4554 103.881 11.7461C104.418 11.0369 105.171 10.49 106.138 10.1055C107.113 9.72096 108.253 9.52876 109.559 9.52876C111.488 9.52876 113.006 9.93646 114.113 10.7518C115.227 11.5672 115.876 12.6775 116.062 14.0828Z" fill="#F5F8FC"/>
<path d="M3.56348 22.4H24.5V0H3.5057C1.57228 0.00642 0.00635613 1.58725 0 3.53908V24.1646H0.00057783C0.00057783 24.1733 0 24.1821 0 24.1908C0 26.2558 1.60521 28 3.5057 28H24.5V26.1333H3.5057C2.63895 26.1333 1.84906 25.2076 1.84906 24.1908C1.84906 23.2202 2.63433 22.4 3.56348 22.4ZM5.54717 1.88592H11.0943V11.9671L8.29764 9.4885L5.54717 11.9525V1.88592ZM1.84906 3.55367C1.84617 2.62617 2.58695 1.87192 3.5057 1.86667H3.69811H5.54717H3.69811V14.4667H5.52637L8.30458 11.9782L11.1117 14.4667H12.9434V1.86667H22.6509V20.5333H5.55179H3.70274H3.56348C2.96196 20.5333 2.37141 20.692 1.84963 20.993V3.55367H1.84906Z" fill="#FFCA42"/>
</svg>
