<svg width="18" height="5" viewBox="0 0 18 5" fill="none" xmlns="http://www.w3.org/2000/svg">
<path fill-rule="evenodd" clip-rule="evenodd" d="M2 2.40625C1.86193 2.40625 1.75 2.51818 1.75 2.65625C1.75 2.79432 1.86193 2.90625 2 2.90625C2.13807 2.90625 2.25 2.79432 2.25 2.65625C2.25 2.51818 2.13808 2.40625 2 2.40625ZM0.25 2.65625C0.25 1.68975 1.0335 0.90625 2 0.90625C2.9665 0.90625 3.75 1.68975 3.75 2.65625C3.75 3.62274 2.9665 4.40625 2 4.40625C1.0335 4.40625 0.25 3.62274 0.25 2.65625Z" fill="#FFCA42"/>
<path fill-rule="evenodd" clip-rule="evenodd" d="M9 2.40625C8.86193 2.40625 8.75 2.51818 8.75 2.65625C8.75 2.79432 8.86193 2.90625 9 2.90625C9.13807 2.90625 9.25 2.79432 9.25 2.65625C9.25 2.51818 9.13808 2.40625 9 2.40625ZM7.25 2.65625C7.25 1.68975 8.0335 0.90625 9 0.90625C9.9665 0.90625 10.75 1.68975 10.75 2.65625C10.75 3.62274 9.9665 4.40625 9 4.40625C8.0335 4.40625 7.25 3.62274 7.25 2.65625Z" fill="#FFCA42"/>
<path fill-rule="evenodd" clip-rule="evenodd" d="M16 2.40625C15.8619 2.40625 15.75 2.51818 15.75 2.65625C15.75 2.79432 15.8619 2.90625 16 2.90625C16.1381 2.90625 16.25 2.79432 16.25 2.65625C16.25 2.51818 16.1381 2.40625 16 2.40625ZM14.25 2.65625C14.25 1.68975 15.0335 0.90625 16 0.90625C16.9665 0.90625 17.75 1.68975 17.75 2.65625C17.75 3.62274 16.9665 4.40625 16 4.40625C15.0335 4.40625 14.25 3.62274 14.25 2.65625Z" fill="#FFCA42"/>
</svg>
